<svg width="26" height="26" viewBox="0 0 26 26" fill="none" xmlns="http://www.w3.org/2000/svg">
<mask id="mask0_2001_1489" style="mask-type:alpha" maskUnits="userSpaceOnUse" x="0" y="0" width="26" height="26">
<rect width="26" height="26" fill="#D9D9D9"/>
</mask>
<g mask="url(#mask0_2001_1489)">
<path d="M20.2833 13.9084L5.16271 20.2833C4.83626 20.4138 4.52616 20.3858 4.23239 20.1991C3.93863 20.0122 3.79175 19.741 3.79175 19.3855V6.61462C3.79175 6.2591 3.93863 5.98791 4.23239 5.80104C4.52616 5.61434 4.83626 5.58627 5.16271 5.71681L20.2833 12.0917C20.6862 12.2695 20.8876 12.5723 20.8876 13.0001C20.8876 13.4278 20.6862 13.7306 20.2833 13.9084ZM5.41675 18.4167L18.2542 13.0001L5.41675 7.58339V11.5833L11.2917 13.0001L5.41675 14.4168V18.4167Z" fill="white"/>
</g>
</svg>
