<svg width="38" height="38" viewBox="0 0 38 38" fill="none" xmlns="http://www.w3.org/2000/svg">
<mask id="mask0_2001_1191" style="mask-type:alpha" maskUnits="userSpaceOnUse" x="0" y="0" width="38" height="38">
<rect width="38" height="38" fill="#D9D9D9"/>
</mask>
<g mask="url(#mask0_2001_1191)">
<path d="M11.3268 34.1331C10.5575 34.1331 9.90349 33.8635 9.36463 33.3244C8.82576 32.7856 8.55633 32.1315 8.55633 31.3623C8.55633 30.5928 8.82576 29.9386 9.36463 29.3997C9.90349 28.8609 10.5575 28.5914 11.3268 28.5914C12.0963 28.5914 12.7505 28.8609 13.2893 29.3997C13.8282 29.9386 14.0976 30.5928 14.0976 31.3623C14.0976 32.1315 13.8282 32.7856 13.2893 33.3244C12.7505 33.8635 12.0963 34.1331 11.3268 34.1331ZM26.6732 34.1331C25.9037 34.1331 25.2496 33.8635 24.7107 33.3244C24.1718 32.7856 23.9024 32.1315 23.9024 31.3623C23.9024 30.5928 24.1718 29.9386 24.7107 29.3997C25.2496 28.8609 25.9037 28.5914 26.6732 28.5914C27.4425 28.5914 28.0965 28.8609 28.6354 29.3997C29.1742 29.9386 29.4437 30.5928 29.4437 31.3623C29.4437 32.1315 29.1742 32.7856 28.6354 33.3244C28.0965 33.8635 27.4425 34.1331 26.6732 34.1331ZM9.52415 9.10417L13.5375 17.5081H24.3315C24.4228 17.5081 24.5041 17.4853 24.5753 17.4396C24.6463 17.394 24.7071 17.3305 24.7578 17.2492L29.0055 9.53048C29.0664 9.41886 29.0715 9.3199 29.0205 9.23361C28.9699 9.14731 28.8836 9.10417 28.7617 9.10417H9.52415ZM8.38573 6.72917H30.3695C31.0171 6.72917 31.5068 7.0048 31.8385 7.55606C32.1704 8.10706 32.1863 8.66981 31.886 9.24429L26.813 18.4336C26.5533 18.8904 26.2098 19.2461 25.7826 19.5007C25.3551 19.7556 24.8867 19.8831 24.3774 19.8831H12.825L10.9919 23.2323C10.9106 23.3542 10.9081 23.4861 10.9844 23.6281C11.0604 23.7703 11.1745 23.8414 11.3268 23.8414H28.2566C28.5933 23.8414 28.8754 23.955 29.1029 24.1823C29.3301 24.4097 29.4437 24.692 29.4437 25.0289C29.4437 25.3659 29.3301 25.648 29.1029 25.8752C28.8754 26.1027 28.5933 26.2164 28.2566 26.2164H11.3268C10.2712 26.2164 9.4781 25.7612 8.94742 24.8508C8.41647 23.9404 8.39774 23.0314 8.89121 22.1239L11.1502 18.0623L5.38967 5.9375H3.5625C3.22551 5.9375 2.94342 5.82376 2.71621 5.59629C2.48874 5.36908 2.375 5.08699 2.375 4.75C2.375 4.41301 2.48874 4.13092 2.71621 3.90371C2.94342 3.67624 3.22551 3.5625 3.5625 3.5625H5.98302C6.25324 3.5625 6.50499 3.63401 6.73827 3.77704C6.97181 3.92033 7.14941 4.12181 7.27106 4.38148L8.38573 6.72917Z" fill="#1A1A1A"/>
</g>
</svg>
